<?xml version="1.0"?>
<svg width="350" xmlns="http://www.w3.org/2000/svg" viewBox="0 0 350 407" height="407">
<circle cy="145" cx="147.6" r="144.3" fill="#b3b3b3"/><circle cy="151.7" cx="154.4" r="137.6" fill="#8f0000"/><path d="m62.54 118c26.46-31.99 76.51-36.94 39.48 7.6m152.4 23.94 6.5-32.91c-41.37-10.04-106-34.62-106-34.62l-36.84 22" fill="#b3b3b3"/><path d="m121.3 222 23.7 43.4 40.2-39.3s-11.9-41.1 13.6-49.3m78.6-58.5 21.4-17.1-15.1 139.6-29.2 59.5m-127.9-231.8 33.8-13.34-5.5 26.82-24.3 22.37m72.4 27.2 23.2-24.8 5.9-27.8-32.2 19.71" fill="#666"/><path d="m236.5 107.2 26.4-17.91 35.8 11.91-19.2 20.4m-180.4-60.37 32.57-15.85 28.6 9.8-26.8 17.19m36.3 11.66 28.2-16.48 34.1 11.43-25 18.38m65.8 69.44 21.6-26.7c13.3-.4 29.9 3.4 38.9 13.5 37.7 42.7-17.2 86.5-17.2 86.5" fill="#b3b3b3"/><path d="m169.8 84.03-2.8 32.97-36.4-12.7 2.9-31.93-34.37-11.13 1.87 48.46c-8.92-5.9-21.69-9.1-35.3 4.6-16.88 16.8-10.33 51.2 12.74 62.1 11.94 5.6 20 7 25.36 6.8l2.1 56.2s15.9 12.8 39.1 26c-4-12.1-12.3-43.2 4.2-56.9 17.8-14.6 47.6-16.1 64.7 18.6 14 28.6-1.2 51.4-9.2 60.6 25.3 6.7 49.8 12.6 49.8 12.6l8.1-58.9c6.4 3.5 23.6 11.9 35.5 8.9 34.3-8.7 33.1-46.9 15.9-68.3-14.1-17.6-35-16.1-41.1-15.2l6.6-45.2-43-14.4-2.5 32.2-30.7-10.2 3.8-31.83" fill="#fff"/><path fill="#4d4d4d" d="m0.281 324.6c-0.363 0.4-0.363 1.6 0 2 2.731 0.2 3.375 0.3 4.468 3.5l11.06 33c0.3 1 0.97 1.5 1.87 1.5 0.85 0 1.39-0.6 1.69-1.5l8.44-21.7c0.24-0.7 0.57-1.5 0.87-1.5 0.25 0 0.57 0.9 0.85 1.7l7.09 21.5c0.37 1.1 1.09 1.5 1.88 1.5 0.85 0 1.35-0.5 1.65-1.4l11.94-32.9c0.73-2.1 1.88-3.5 5.22-3.7 0.37-0.4 0.37-1.6 0-2-4.07 0.2-8.16 0.1-11.94 0-0.36 0.4-0.36 1.6 0 2 2.49 0.2 4.91 0.4 4 3l-9.65 27.7h-0.13l-8.72-27c-1.05-3.3 1.1-3.5 3.16-3.7 0.36-0.4 0.36-1.6 0-2-4.69 0.2-9.48 0.1-13.5 0-0.36 0.4-0.36 1.6 0 2 3.22 0.2 4.77 2.1 5.28 3.7l0.91 2.7c0.24 0.8 0.31 1.2 0.31 1.7 0 0.8-0.11 1.6-0.41 2.3l-7.65 20.1h-0.13l-9.091-27.9c-0.692-2.2 0.911-2.5 3.031-2.6 0.36-0.4 0.36-1.6 0-2-4.304 0.2-9.009 0.1-12.5 0zm60.12 0c-0.36 0.4-0.36 1.6 0 2 4.25 0.2 5.28 0.5 5.28 5.5v24.3c0 5.1-1.03 5.4-5.28 5.6-0.36 0.4-0.36 1.6 0 2 5.54-0.2 10.86-0.1 15.72 0 0.36-0.4 0.36-1.6 0-2-4.25-0.2-5.28-0.5-5.28-5.6v-24.3c0-5 1.03-5.3 5.28-5.5 0.36-0.4 0.36-1.6 0-2-5.54 0.2-10.84 0.1-15.72 0zm19.5 0c-0.36 0.4-0.36 1.6 0 2 4.25 0.2 5.28 0.5 5.28 5.5v24.3c0 5.1-1.03 5.4-5.28 5.6-0.36 0.4-0.36 1.6 0 2 5.54-0.2 10.84-0.1 15.72 0 0.36-0.4 0.36-1.6 0-2-4.25-0.2-5.28-0.5-5.28-5.6v-11.3c2.04 0.1 3.63 0.8 4.84 2.3l9.92 12c1.2 1.5 1.2 3.1 1.2 4.2 0 0.2 0 0.4 0.3 0.4 3.5-0.3 7.3-0.1 10.2 0 0.4-0.4 0.4-1.6 0-2-1.1-0.2-3.3 0-5.3-2.6l-13.34-15.8c-0.55-0.6-0.72-1-0.72-1.5 0-0.4 0.26-0.8 2.25-2.9l8.51-9.2c2.8-3 5.4-3.1 7.9-3.4 0.3-0.4 0.3-1.6 0-2-4.6 0.2-8.6 0.1-12.7 0-0.3 0.4-0.3 1.6 0 2 2.2 0.2 4.7-0.1 1.8 3.2l-10.26 10.6c-1.22 1.3-2.47 2.2-4.6 2.4v-10.7c0-5 1.04-5.3 5.29-5.5 0.36-0.4 0.36-1.6 0-2-5.54 0.2-10.86 0.1-15.72 0zm40.9 0c-0.4 0.4-0.4 1.6 0 2 4.3 0.2 5.3 0.5 5.3 5.5v24.3c0 5.1-1 5.4-5.3 5.6-0.4 0.4-0.4 1.6 0 2 5.5-0.2 10.9-0.1 15.7 0 0.4-0.4 0.4-1.6 0-2-4.2-0.2-5.3-0.5-5.3-5.6v-24.3c0-5 1.1-5.3 5.3-5.5 0.4-0.4 0.4-1.6 0-2-5.5 0.2-10.8 0.1-15.7 0zm154.4 46.3-9.6 4.9v4.6h-3.6v7h3.6v8.8c0 2.8 0.3 4.8 0.8 6.1 0.5 1.2 1.4 2.2 2.5 2.8s2.9 0.9 5.3 0.9c2 0 4.2-0.2 6.6-0.8l-0.7-6.6c-1.3 0.4-2.2 0.6-3 0.6-0.7 0-1.3-0.3-1.6-0.8-0.2-0.4-0.3-1.1-0.3-2.1v-8.9h5.3v-7h-5.3zm-251.6 8.9c-1.86 0-3.47 0.3-4.78 1-1.31 0.6-2.62 1.7-3.91 3.3v-3.7h-8.965v25h9.625v-12.7c0-1.9 0.35-3.3 1.06-4.1 0.71-0.9 1.62-1.3 2.72-1.3 0.68 0 1.28 0.2 1.78 0.6 0.51 0.4 0.86 0.9 1.07 1.5 0.12 0.4 0.18 1.1 0.18 2.2v13.8h9.63v-12.9c0-1.8 0.34-3.1 1.03-4 0.69-0.8 1.62-1.2 2.75-1.2 0.95 0 1.73 0.5 2.37 1.3 0.44 0.6 0.66 1.4 0.66 2.5v14.3h9.62v-15.7c0-3.4-0.74-5.9-2.24-7.5-1.51-1.6-3.6-2.4-6.29-2.4-1.82 0-3.35 0.3-4.59 0.9s-2.62 1.7-4.12 3.3c-0.74-1.4-1.72-2.4-2.88-3.1s-2.72-1.1-4.72-1.1zm43.72 0c-4.38 0-7.86 1.3-10.44 3.7-2.58 2.5-3.88 5.7-3.88 9.5 0 4.1 1.52 7.4 4.57 10 2.48 2 5.76 3 9.78 3 4.51 0 8.04-1.2 10.59-3.7 2.55-2.4 3.81-5.6 3.81-9.5 0-3.4-1.03-6.3-3.09-8.6-2.56-2.9-6.34-4.4-11.34-4.4zm37.08 0c-2 0-3.6 0.4-5.01 1.1-1.37 0.7-2.72 1.9-4.06 3.5v-4h-8.97v25h9.62v-12c0-2.3 0.4-3.9 1.13-4.8 0.73-0.8 1.67-1.3 2.84-1.3 1.05 0 1.85 0.3 2.45 1 0.6 0.6 0.9 1.8 0.9 3.3v13.8h9.6v-15.9c0-3.3-0.7-5.7-2.2-7.3s-3.6-2.4-6.3-2.4zm64.2 0c-1.9 0-3.5 0.3-4.8 1-1.3 0.6-2.6 1.7-3.9 3.3v-3.7h-8.9v25h9.6v-12.7c0-1.9 0.3-3.3 1-4.1 0.8-0.9 1.7-1.3 2.8-1.3 0.6 0 1.2 0.2 1.7 0.6s0.9 0.9 1.1 1.5c0.1 0.4 0.2 1.1 0.2 2.2v13.8h9.6v-12.9c0-1.8 0.3-3.1 1-4 0.7-0.8 1.6-1.2 2.8-1.2 0.9 0 1.7 0.5 2.4 1.3 0.4 0.6 0.6 1.4 0.6 2.5v14.3h9.7v-15.7c0-3.4-0.8-5.9-2.3-7.5s-3.6-2.4-6.3-2.4c-1.8 0-3.4 0.3-4.6 0.9s-2.6 1.7-4.1 3.3c-0.8-1.4-1.7-2.4-2.9-3.1-1.1-0.7-2.7-1.1-4.7-1.1zm43.5 0c-4.4 0-7.9 1.2-10.4 3.6-2.5 2.5-3.7 5.6-3.7 9.6 0 2.7 0.6 5.1 1.8 7.2 1.3 2 2.8 3.5 4.7 4.4s4.6 1.4 7.9 1.4c3.8 0 6.8-0.5 8.8-1.6s3.8-2.9 5.3-5.4l-9.5-0.9c-0.6 0.7-1.1 1.3-1.7 1.6-0.8 0.5-1.7 0.7-2.7 0.7-1.5 0-2.7-0.6-3.6-1.6-0.7-0.8-1.1-1.9-1.3-3.5h19.3v-1.1c0-3.3-0.5-6-1.6-8-1.1-2.1-2.7-3.7-4.8-4.8-2-1-4.9-1.6-8.5-1.6zm37.3 0c-2 0-3.6 0.4-5 1.1s-2.8 1.9-4.1 3.5v-4h-8.9v25h9.6v-12c0-2.3 0.4-3.9 1.1-4.8 0.7-0.8 1.6-1.3 2.8-1.3 1.1 0 1.9 0.3 2.5 1 0.6 0.6 0.9 1.8 0.9 3.3v13.8h9.6v-15.9c0-3.3-0.7-5.7-2.3-7.3-1.5-1.6-3.5-2.4-6.2-2.4zm47.1 0c-2.8 0-5 0.3-6.7 0.9s-3 1.5-4 2.7c-0.9 1.2-1.4 2.6-1.4 4.2s0.5 2.9 1.3 4.1c0.9 1.1 2 2 3.3 2.5s3.6 1 7 1.6c2.2 0.4 3.6 0.7 4.1 1 0.7 0.4 1 0.9 1 1.6 0 0.6-0.2 1.1-0.8 1.5-0.7 0.6-1.7 0.9-3 0.9-1.1 0-2.1-0.3-2.8-0.8s-1.3-1.3-1.7-2.4l-9.5 0.8c0.6 2.5 1.8 4.3 3.8 5.6 1.9 1.4 5.2 2 9.8 2 3.2 0 5.7-0.4 7.6-1.2s3.3-1.9 4.1-3.3c0.9-1.3 1.4-2.7 1.4-4.2 0-1.4-0.4-2.7-1.3-3.9-0.8-1.2-2-2.2-3.6-2.8-1.5-0.6-3.9-1.1-7.1-1.5-2.1-0.3-3.4-0.5-4.1-0.8-0.6-0.3-0.9-0.8-0.9-1.5 0-0.5 0.2-1 0.7-1.4 0.5-0.3 1.3-0.5 2.4-0.5s1.9 0.2 2.7 0.7c0.5 0.4 0.9 1 1.2 1.8l9.1-0.9c-0.6-1.6-1.4-2.9-2.4-3.9-0.9-0.9-2.1-1.6-3.5-2.1-1.4-0.4-3.7-0.7-6.7-0.7zm-178 0.6v15.9c0 3.3 0.8 5.7 2.3 7.3s3.6 2.4 6.2 2.4c2 0 3.7-0.3 5-1 1.4-0.8 2.7-2 4.1-3.6v4h8.9v-25h-9.5v12c0 2.3-0.4 3.9-1.2 4.8-0.7 0.9-1.6 1.3-2.8 1.3-1 0-1.9-0.3-2.5-1-0.5-0.7-0.8-1.7-0.8-3.3v-13.8zm94 5.1c1.4 0 2.4 0.4 3.3 1.2 0.8 0.8 1.3 2.1 1.5 4h-9.6c0.2-1.5 0.6-2.6 1.2-3.4 0.9-1.2 2.1-1.8 3.6-1.8zm-145 0.9c1.32 0 2.42 0.6 3.31 1.6 0.9 1.1 1.35 2.7 1.35 4.8 0 2.4-0.43 4.1-1.32 5.1-0.88 1.1-2.02 1.6-3.4 1.6-1.37 0-2.5-0.5-3.41-1.6-0.9-1.1-1.37-2.7-1.37-4.9s0.46-3.9 1.37-5c0.91-1 2.07-1.6 3.47-1.6z"/> <path d="m172.8 324.7-10.87 0.03v39.12h10.87v-39.15zm88.22 10.12c-5.01 0-8.94 1.39-11.78 4.13s-4.25 6.32-4.25 10.75c0 3.11 0.7 5.81 2.12 8.12 1.42 2.3 3.19 3.97 5.35 5.03 2.15 1.06 5.11 1.6 8.87 1.6 4.33 0 7.66-0.61 9.97-1.85 2.32-1.24 4.31-3.3 5.94-6.15l-10.69-1c-0.68 0.86-1.33 1.47-1.91 1.81-0.97 0.54-1.99 0.81-3.06 0.81-1.7 0-3.07-0.61-4.12-1.84-0.75-0.86-1.22-2.16-1.41-3.91h21.81v-1.22c0-3.74-0.61-6.76-1.84-9.09-1.22-2.33-3.03-4.11-5.38-5.34-2.35-1.22-5.56-1.85-9.62-1.85zm-66.41 0.03c-4.97 0-8.91 1.39-11.84 4.19-2.92 2.81-4.38 6.36-4.38 10.85 0 4.48 1.73 8.25 5.19 11.12 2.81 2.31 6.5 3.47 11.06 3.47 5.12 0 9.14-1.41 12.03-4.19 2.91-2.78 4.35-6.36 4.35-10.72 0-3.88-1.16-7.13-3.5-9.78-2.9-3.29-7.22-4.94-12.91-4.94zm101.2 0c-3.2 0-5.75 0.33-7.65 1-1.91 0.67-3.42 1.68-4.5 3.04-1.09 1.35-1.63 2.94-1.63 4.81 0 1.71 0.49 3.23 1.5 4.56 1 1.34 2.25 2.28 3.72 2.84 1.46 0.56 4.11 1.16 7.87 1.82 2.54 0.44 4.07 0.82 4.66 1.12 0.83 0.43 1.25 1.03 1.25 1.81 0 0.7-0.32 1.29-0.94 1.75-0.8 0.63-1.91 0.94-3.37 0.94-1.33 0-2.39-0.28-3.19-0.84s-1.42-1.51-1.87-2.81l-10.82 1c0.62 2.74 2.02 4.85 4.22 6.34 2.2 1.48 5.88 2.22 11.06 2.22 3.66 0 6.56-0.43 8.69-1.35 2.12-0.91 3.68-2.17 4.66-3.71 0.99-1.55 1.5-3.11 1.5-4.76 0-1.6-0.47-3.11-1.41-4.46-0.93-1.35-2.27-2.38-4.03-3.1-1.76-0.73-4.45-1.31-8.06-1.72-2.39-0.28-3.93-0.57-4.63-0.93-0.7-0.35-1.06-0.91-1.06-1.6 0-0.62 0.28-1.15 0.84-1.59 0.57-0.43 1.44-0.63 2.66-0.63 1.21 0 2.24 0.28 3.1 0.85 0.62 0.43 1.07 1.11 1.34 2.03l10.31-1c-0.71-1.87-1.61-3.35-2.69-4.44-1.08-1.1-2.42-1.88-4.03-2.41-1.61-0.51-4.11-0.78-7.5-0.78zm-73.43 0.6-11.32 0.03 11.82 28.37h9.65l12.03-28.4h-10.94l-5.71 18-5.53-18zm39.06 5.81c1.49 0 2.7 0.47 3.62 1.37 0.92 0.92 1.47 2.4 1.69 4.5h-10.72c0.18-1.7 0.59-2.96 1.25-3.81 1.03-1.37 2.43-2.06 4.16-2.06zm-66.72 1.09c1.5 0 2.76 0.58 3.78 1.78s1.53 3.02 1.53 5.47c0 2.62-0.52 4.53-1.53 5.72s-2.3 1.78-3.88 1.78c-1.55 0-2.84-0.6-3.87-1.81-1.03-1.2-1.53-3.06-1.53-5.56s0.52-4.34 1.56-5.56c1.04-1.21 2.34-1.82 3.94-1.82z" fill="#8f0000"/></svg>