<?xml version="1.0" encoding="UTF-8"?>
<svg id="Layer_1" xmlns="http://www.w3.org/2000/svg" width="230.45" height="289.36" version="1.1" viewBox="0 0 230.45 289.36">
  <!-- Generator: Adobe Illustrator 29.8.1, SVG Export Plug-In . SVG Version: 2.1.1 Build 2)  -->
  <defs>
    <style>
      .st0 {
        fill: #4d4d4d;
      }

      .st1 {
        fill: #fff;
      }

      .st2 {
        fill: #8f0000;
      }

      .st3 {
        fill: #666;
      }

      .st4 {
        fill: #b3b3b3;
      }
    </style>
  </defs>
  <circle class="st4" cx="97.74" cy="102.74" r="92.26"/>
  <circle class="st2" cx="102.09" cy="107.02" r="87.98"/>
  <path class="st4" d="M43.36,85.47c16.92-20.45,48.92-23.62,25.24,4.86M166.04,105.64l4.16-21.04c-26.45-6.42-67.77-22.13-67.77-22.13l-23.55,14.07"/>
  <path class="st3" d="M80.93,151.97l15.15,27.75,25.7-25.13s-7.61-26.28,8.7-31.52M180.73,85.67l13.68-10.93-9.65,89.25-18.67,38.04M84.32,53.83l21.61-8.53-3.52,17.15-15.54,14.3M133.16,94.14l14.83-15.86,3.77-17.77-20.59,12.6"/>
  <path class="st4" d="M154.58,78.57l16.88-11.45,22.89,7.61-12.28,13.04M66.73,49.18l20.82-10.13,18.29,6.27-17.13,10.99M111.92,63.75l18.03-10.54,21.8,7.31-15.98,11.75M177.84,116.67l13.81-17.07c8.5-.26,19.12,2.17,24.87,8.63,24.1,27.3-11,55.3-11,55.3"/>
  <path class="st1" d="M111.94,63.75l-1.79,21.08-23.27-8.12,1.85-20.41-21.97-7.12,1.2,30.98c-5.7-3.77-13.87-5.82-22.57,2.94-10.79,10.74-6.6,32.73,8.15,39.7,7.63,3.58,12.79,4.48,16.21,4.35l1.34,35.93s10.17,8.18,25,16.62c-2.56-7.74-7.86-27.62,2.69-36.38,11.38-9.33,30.43-10.29,41.37,11.89,8.95,18.29-.77,32.86-5.88,38.74,16.18,4.28,31.84,8.06,31.84,8.06l5.18-37.66c4.09,2.24,15.09,7.61,22.7,5.69,21.93-5.56,21.16-29.99,10.17-43.67-9.01-11.25-22.38-10.29-26.28-9.72l4.22-28.9-27.49-9.21-1.6,20.59-19.63-6.52,2.43-20.35"/>
  <g>
    <path class="st2" d="M6.14,269.53l5.21-.49c.22.62.52,1.06.9,1.33s.9.4,1.55.4c.7,0,1.25-.15,1.64-.45.3-.22.45-.5.45-.84,0-.38-.2-.67-.59-.88-.28-.14-1.04-.33-2.26-.54-1.83-.32-3.09-.61-3.8-.88s-1.31-.73-1.79-1.37c-.49-.64-.73-1.38-.73-2.2,0-.9.26-1.68.79-2.33s1.25-1.14,2.16-1.46c.92-.32,2.15-.48,3.7-.48,1.63,0,2.84.12,3.62.37.78.25,1.43.64,1.95,1.16s.95,1.23,1.3,2.13l-4.98.49c-.13-.44-.34-.76-.64-.97-.41-.28-.91-.41-1.5-.41s-1.03.11-1.3.32-.41.47-.41.77c0,.33.17.59.52.76s1.09.33,2.24.47c1.75.2,3.05.47,3.9.83.85.35,1.5.85,1.95,1.51.45.65.68,1.37.68,2.15s-.24,1.56-.72,2.31c-.48.75-1.23,1.34-2.26,1.79s-2.42.67-4.2.67c-2.5,0-4.28-.36-5.34-1.07s-1.74-1.73-2.04-3.05v-.02Z"/>
    <path class="st2" d="M38.7,267.79h-10.53c.09.84.32,1.47.68,1.88.5.59,1.17.89,1.99.89.52,0,1-.13,1.47-.39.28-.16.59-.45.92-.87l5.17.48c-.79,1.38-1.75,2.36-2.86,2.96-1.12.6-2.72.9-4.81.9-1.81,0-3.24-.26-4.28-.77s-1.9-1.33-2.59-2.44c-.68-1.12-1.03-2.42-1.03-3.93,0-2.14.69-3.87,2.06-5.2,1.37-1.33,3.26-1.99,5.68-1.99,1.96,0,3.51.29,4.64.89s2,1.45,2.59,2.58c.59,1.13.89,2.59.89,4.4v.59h0ZM33.36,265.27c-.11-1.02-.38-1.74-.82-2.18-.44-.44-1.03-.66-1.75-.66-.83,0-1.5.33-2,.99-.32.41-.52,1.03-.6,1.84h5.17Z"/>
    <path class="st2" d="M39.17,259.64h5.46l2.66,8.68,2.76-8.68h5.3l-5.82,13.69h-4.66l-5.7-13.69h0Z"/>
    <path class="st2" d="M57.33,254.43h5.25v3.57h-5.25v-3.57ZM57.33,259.64h5.25v13.69h-5.25v-13.69Z"/>
    <path class="st2" d="M64.71,259.64h5.54l2.82,9.12,2.62-9.12h5.17l-5.43,14.63c-.62,1.67-1.25,2.8-1.9,3.38-.91.83-2.3,1.24-4.16,1.24-.75,0-1.93-.11-3.51-.31l-.41-3.66c.75.24,1.6.36,2.52.36.62,0,1.12-.14,1.5-.43.38-.28.7-.79.97-1.53l-5.75-13.69h0Z"/>
    <path class="st2" d="M81.55,266.52c0-2.09.7-3.81,2.11-5.17,1.41-1.35,3.31-2.03,5.72-2.03,2.74,0,4.82.79,6.21,2.39,1.13,1.28,1.69,2.86,1.69,4.73,0,2.11-.7,3.83-2.1,5.18-1.4,1.35-3.33,2.02-5.8,2.02-2.2,0-3.98-.56-5.34-1.68-1.67-1.38-2.5-3.2-2.5-5.44h0ZM86.81,266.51c0,1.22.25,2.13.74,2.71s1.12.88,1.86.88,1.38-.29,1.86-.87.73-1.5.73-2.77c0-1.19-.24-2.07-.73-2.65s-1.1-.87-1.82-.87c-.77,0-1.4.29-1.9.88s-.75,1.49-.75,2.69h0Z"/>
    <path class="st2" d="M100.16,259.64h4.92v2.24c.47-.97.96-1.64,1.46-2,.5-.37,1.13-.55,1.86-.55s1.62.24,2.54.72l-1.63,3.74c-.62-.26-1.11-.39-1.47-.39-.69,0-1.22.28-1.6.85-.54.8-.81,2.3-.81,4.49v4.59h-5.28v-13.69h0Z"/>
  </g>
  <g>
    <g>
      <path class="st0" d="M23.26,217.67c1.59.04,3.32.08,4.21.08s2.24-.04,3.4-.08c.23.23.23,1.04,0,1.28-2.44.27-3.06,1.76-3.8,3.59l-7.99,19.71c-.22.55-.51.89-.93.89-.38,0-.66-.29-.89-.89l-7.63-19.79c-1.03-2.67-1.34-3.32-3.46-3.52-.23-.23-.27-1.04-.04-1.28,1.28.04,2.61.08,4.02.08s3.13-.04,4.67-.08c.23.23.23,1.04,0,1.28-2.63.27-2.85.79-1.96,3.09l6.15,15.73h.18l6.11-15.5c.82-2.1.81-3.13-2.05-3.32-.23-.23-.23-1.04,0-1.28h0Z"/>
      <path class="st0" d="M43.08,241.48c.23.23.23,1.04,0,1.28-1.74-.04-3.61-.08-4.99-.08s-3.29.04-5.03.08c-.23-.23-.23-1.04,0-1.28,2.7-.12,3.36-.31,3.36-3.52v-15.5c0-3.21-.66-3.4-3.36-3.52-.23-.23-.23-1.04,0-1.28,1.82.04,3.69.08,4.99.08,1.49,0,3.32-.04,5.03-.08.23.23.23,1.04,0,1.28-2.7.12-3.36.31-3.36,3.52v15.5c0,3.21.66,3.4,3.36,3.52ZM38.1,211.56c1.08,0,2.01.93,2.01,2.01s-.93,2.01-2.01,2.01-2.01-.93-2.01-2.01.93-2.01,2.01-2.01Z"/>
      <path class="st0" d="M55.76,241.48c.23.23.23,1.04,0,1.28-1.74-.04-3.52-.08-4.99-.08s-3.29.04-5.03.08c-.23-.23-.23-1.04,0-1.28,2.7-.12,3.36-.31,3.36-3.52v-15.5c0-3.21-.66-3.4-3.36-3.52-.23-.23-.23-1.04,0-1.28,1.74.04,3.5.08,4.99.08,1.41,0,3.25-.04,5.03-.08.23.23.23,1.04,0,1.28-2.7.12-3.36.31-3.36,3.52v6.79c1.36-.12,2.23-.62,3.06-1.5l6.38-6.8c1.63-1.73.31-1.88-1.08-2.01-.23-.23-.23-1.04,0-1.28,1.43.04,2.93.08,4.37.08,1.25,0,2.47-.04,3.67-.08.23.23.23,1.04,0,1.28-1.55.12-3.09.27-4.87,2.16l-5.68,5.84c-1.32,1.36-1.36,1.62-1.36,1.89,0,.31.2.61.51.97l8.47,10.05c1.18,1.4,2.28,1.52,3.4,1.62.23.23.23,1.04,0,1.28-1.27-.04-2.59-.08-3.91-.08-.82,0-1.32.04-2.08.08-.15,0-.18-.12-.19-.23-.08-.62-.61-1.68-1.39-2.67l-6.07-7.65c-.79-.99-1.9-1.43-3.21-1.46v7.22c0,3.21.66,3.4,3.36,3.52h0Z"/>
      <path class="st0" d="M81.58,241.48c.23.23.23,1.04,0,1.28-1.74-.04-3.61-.08-4.99-.08s-3.29.04-5.03.08c-.23-.23-.23-1.04,0-1.28,2.7-.12,3.36-.31,3.36-3.52v-15.5c0-3.21-.66-3.4-3.36-3.52-.23-.23-.23-1.04,0-1.28,1.82.04,3.69.08,4.99.08,1.49,0,3.32-.04,5.03-.08.23.23.23,1.04,0,1.28-2.7.12-3.36.31-3.36,3.52v15.5c0,3.21.66,3.4,3.36,3.52ZM76.59,211.56c1.08,0,2.01.93,2.01,2.01s-.93,2.01-2.01,2.01-2.01-.93-2.01-2.01.93-2.01,2.01-2.01Z"/>
    </g>
    <g>
      <path class="st0" d="M95.61,231.99l-5.78-.61c.22-1.01.53-1.8.95-2.38.41-.58,1-1.08,1.78-1.51.56-.31,1.32-.54,2.29-.72.97-.17,2.02-.25,3.15-.25,1.82,0,3.27.1,4.37.31s2.01.63,2.75,1.27c.52.45.92,1.07,1.22,1.89s.45,1.6.45,2.34v6.97c0,.74.04,1.32.14,1.75s.3.96.61,1.61h-5.68c-.23-.4-.38-.72-.45-.93-.07-.21-.14-.55-.21-1-.79.76-1.58,1.3-2.37,1.64-1.07.43-2.31.65-3.73.65-1.88,0-3.31-.43-4.29-1.3s-1.46-1.94-1.46-3.22c0-1.2.35-2.19,1.05-2.95.7-.77,2-1.35,3.89-1.73,2.27-.45,3.74-.77,4.41-.96s1.39-.42,2.14-.72c0-.74-.15-1.27-.46-1.56s-.84-.45-1.62-.45c-.99,0-1.73.16-2.23.47-.38.25-.7.72-.93,1.39h0ZM100.86,235.17c-.83.29-1.7.56-2.6.79-1.23.33-2.01.65-2.33.97-.34.33-.51.7-.51,1.11,0,.47.17.86.5,1.16s.82.45,1.46.45,1.3-.16,1.88-.49c.58-.33.99-.72,1.23-1.2.24-.47.36-1.08.36-1.83v-.97h0Z"/>
      <path class="st0" d="M110.74,226.88h5.63v2.57c.84-1.05,1.69-1.8,2.56-2.25.86-.45,1.91-.68,3.15-.68,1.68,0,2.99.5,3.93,1.5.95,1,1.42,2.53,1.42,4.62v10.03h-6.08v-8.68c0-.99-.19-1.69-.55-2.1s-.88-.61-1.55-.61c-.74,0-1.33.27-1.78.83-.45.56-.68,1.55-.68,2.99v7.58h-6.05v-15.78h0Z"/>
      <path class="st0" d="M131.59,226.88h6.05v15.78h-6.05v-15.78Z"/>
      <path class="st0" d="M149.13,220.88v6h3.33v4.43h-3.33v5.59c0,.67.06,1.12.19,1.34.2.34.54.51,1.04.51.45,0,1.07-.13,1.87-.38l.45,4.17c-1.5.33-2.89.49-4.19.49-1.51,0-2.61-.19-3.33-.58s-1.24-.97-1.59-1.76c-.34-.79-.51-2.06-.51-3.82v-5.55h-2.23v-4.43h2.23v-2.9l6.06-3.11h0Z"/>
      <path class="st0" d="M155.89,220.88h6.06v21.78h-6.06v-21.78Z"/>
      <path class="st0" d="M171.67,231.99l-5.78-.61c.22-1.01.53-1.8.95-2.38.41-.58,1-1.08,1.78-1.51.56-.31,1.32-.54,2.29-.72.97-.17,2.02-.25,3.15-.25,1.81,0,3.27.1,4.37.31s2.01.63,2.75,1.27c.52.45.92,1.07,1.22,1.89s.45,1.6.45,2.34v6.97c0,.74.04,1.32.14,1.75s.3.96.61,1.61h-5.68c-.23-.4-.38-.72-.45-.93-.07-.21-.14-.55-.21-1-.79.76-1.58,1.3-2.37,1.64-1.07.43-2.31.65-3.73.65-1.88,0-3.31-.43-4.29-1.3-.98-.87-1.46-1.94-1.46-3.22,0-1.2.35-2.19,1.05-2.95.7-.77,2-1.35,3.89-1.73,2.27-.45,3.74-.77,4.41-.96s1.39-.42,2.14-.72c0-.74-.15-1.27-.46-1.56s-.84-.45-1.62-.45c-.99,0-1.73.16-2.23.47-.38.25-.7.72-.93,1.39h0ZM176.91,235.17c-.83.29-1.7.56-2.6.79-1.23.33-2.01.65-2.33.97-.34.33-.51.7-.51,1.11,0,.47.17.86.5,1.16s.82.45,1.46.45,1.3-.16,1.88-.49c.58-.33.99-.72,1.23-1.2s.36-1.08.36-1.83v-.97h0Z"/>
      <path class="st0" d="M186.84,226.88h5.66v2.58c.54-1.12,1.11-1.89,1.69-2.31.58-.42,1.3-.63,2.15-.63s1.87.27,2.93.83l-1.87,4.31c-.72-.29-1.28-.45-1.69-.45-.79,0-1.41.33-1.84.98-.63.92-.93,2.65-.93,5.17v5.29h-6.08v-15.78h0Z"/>
      <path class="st0" d="M200.85,226.88h6.05v15.78h-6.05v-15.78Z"/>
    </g>
  </g>
  <g>
    <path class="st2" d="M136.38,251.11c.62,0,1.11.19,1.46.56s.53.79.53,1.26c0,.55-.16,1.04-.48,1.45s-.75.75-1.31,1.01c-.52.24-1.14.43-1.86.56-.72.13-1.54.19-2.46.19-.64,0-1.33-.03-2.06-.09s-1.48-.13-2.25-.22c-.77-.09-1.52-.16-2.25-.22-.73-.06-1.42-.09-2.06-.09-.59,0-1.15.03-1.68.09s-.95.18-1.24.35c.45.12.82.37,1.11.75.29.38.44.83.44,1.35,0,.59-.19,1.1-.56,1.53s-.86.65-1.46.65-1.07-.2-1.38-.61c-.32-.41-.48-.88-.48-1.44,0-.41.12-.86.35-1.33.23-.47.68-.87,1.33-1.18.41-.21.85-.35,1.29-.44.45-.09.87-.14,1.27-.16.4-.02.7-.03.91-.03,1.07,0,2.11.05,3.13.14,1.02.1,2.01.19,2.99.29.98.09,1.92.14,2.83.14.67,0,1.24-.03,1.7-.1.46-.07.88-.17,1.25-.31l-.05.21c-.26-.21-.5-.5-.72-.88-.22-.38-.34-.81-.34-1.29,0-.62.19-1.13.56-1.53.37-.4.87-.6,1.49-.6ZM126.8,255.49c.54.05,1,.1,1.4.13.4.03.79.07,1.19.1.4.03.87.08,1.42.13l-3.86,14.47c-.16.62-.21,1.11-.17,1.46s.23.6.57.75c.34.15.85.24,1.54.27l-.1.52c-.54-.03-1.23-.06-2.1-.06s-1.76-.01-2.69-.01-1.76,0-2.58.01c-.82,0-1.48.03-1.98.06l.1-.52c.72-.03,1.3-.12,1.72-.27.42-.15.75-.4.98-.75.23-.35.43-.84.58-1.46l3.96-14.83Z"/>
    <path class="st2" d="M142.21,264.24c-.64,1.9-1.25,3.46-1.84,4.7-.59,1.23-1.16,2.19-1.72,2.87-.56.68-1.13,1.17-1.72,1.45-.59.28-1.21.43-1.86.43-.73,0-1.28-.16-1.67-.47-.39-.31-.6-.76-.65-1.35-.04-.59.06-1.29.32-2.1l2.51-7.64c.17-.5.21-.84.12-1.02s-.25-.27-.45-.27c-.22,0-.47.12-.75.38s-.57.81-.88,1.67l-.47,1.24h-.49l.65-1.89c.26-.72.58-1.28.97-1.66.39-.38.8-.64,1.24-.79.44-.15.86-.22,1.26-.22.78,0,1.35.17,1.73.5.38.34.59.81.62,1.42.04.61-.09,1.34-.36,2.19l-2.33,6.99c-.38,1.14-.29,1.71.26,1.71.33,0,.7-.22,1.11-.65.41-.43.85-1.03,1.31-1.79s.91-1.65,1.36-2.67c.45-1.02.88-2.11,1.29-3.29.42-1.17.78-2.37,1.09-3.6l-.65,3.83ZM136.87,255.83c0-.69.22-1.23.67-1.61.45-.38.97-.57,1.55-.57.55,0,.97.16,1.26.48.28.32.43.73.43,1.23,0,.47-.11.86-.32,1.19-.22.33-.5.57-.84.74-.35.16-.71.25-1.09.25-.57,0-.99-.16-1.26-.47s-.4-.72-.4-1.24ZM143.48,271.13c-.12.43-.17.75-.16.97.02.22.16.32.44.32.31,0,.6-.15.87-.45.27-.3.53-.83.79-1.59l.49-1.32h.49l-.7,1.97c-.22.67-.52,1.2-.89,1.59s-.78.67-1.22.83c-.44.16-.89.25-1.36.25s-.86-.08-1.18-.23c-.32-.16-.57-.37-.74-.65-.17-.33-.25-.72-.22-1.18.03-.46.11-.98.25-1.57l2.62-10.12c.71-.02,1.38-.05,2.01-.1s1.21-.14,1.75-.26l-3.24,11.55ZM142.75,255.83c0-.69.23-1.23.69-1.61.46-.38.97-.57,1.54-.57s.99.16,1.27.48c.28.32.42.73.42,1.23,0,.47-.11.86-.32,1.19-.22.33-.49.57-.83.74s-.7.25-1.07.25c-.57,0-.99-.16-1.27-.47-.28-.31-.41-.72-.41-1.24Z"/>
    <path class="st2" d="M151.53,273.33h-3.65l3.16-11.18c.12-.47.16-.8.12-1-.04-.2-.18-.3-.4-.3-.31,0-.6.15-.85.45s-.54.83-.83,1.59l-.49,1.32h-.49l.7-1.97c.26-.69.57-1.23.93-1.6.36-.38.77-.65,1.23-.82.46-.16.93-.25,1.41-.25.55,0,.97.11,1.27.32.29.22.49.5.59.87s.14.75.12,1.18c-.03.42-.09.84-.19,1.26l-2.62,10.12ZM158.15,260.15c-.35,0-.72.1-1.11.31-.4.21-.8.58-1.22,1.11s-.85,1.28-1.31,2.23-.92,2.16-1.4,3.64c-.48,1.48-.96,3.26-1.46,5.35l.57-3.49c.55-1.9,1.05-3.47,1.5-4.71.45-1.24.9-2.23,1.36-2.96s.94-1.26,1.45-1.57c.51-.31,1.09-.47,1.75-.47s1.19.2,1.55.59c.36.4.54.9.54,1.5,0,.48-.11.93-.32,1.33-.22.41-.51.73-.88.98-.37.25-.79.38-1.26.38-.5,0-.89-.13-1.17-.4s-.41-.65-.41-1.15c0-.41.09-.8.29-1.15.19-.35.45-.66.78-.92.33-.26.69-.43,1.09-.52-.05-.02-.1-.03-.16-.05-.05-.02-.11-.03-.18-.03Z"/>
    <path class="st2" d="M162.84,273.33h-3.65l5.13-17.27c.17-.59.16-1.02-.05-1.29s-.73-.41-1.58-.41l.16-.54c1.22-.02,2.32-.12,3.29-.3.97-.18,1.88-.44,2.74-.76l-6.03,20.58ZM169.86,271.33c-.09.41-.1.7-.03.85.07.16.21.23.41.23.22,0,.47-.13.74-.4.27-.27.55-.82.84-1.64l.47-1.24h.49l-.65,1.89c-.24.71-.57,1.25-.97,1.64s-.85.66-1.32.8-.95.22-1.44.22c-.85,0-1.45-.25-1.81-.76-.36-.51-.44-1.25-.23-2.21l.44-1.99c.22-.93.18-1.6-.14-2.02-.32-.41-1.03-.67-2.14-.78v-.1c.76-.05,1.51-.05,2.26.01s1.42.21,1.99.45c.58.24,1.01.62,1.29,1.13s.34,1.18.17,2.01l-.39,1.92ZM171.05,260.1c-.22,0-.42.03-.6.1s-.34.16-.49.28c-.31.24-.56.59-.75,1.04-.19.45-.38.93-.58,1.44-.2.51-.44.99-.72,1.44-.28.45-.67.82-1.15,1.1-.48.29-1.12.42-1.92.4l-.26.03.05-.28c.78-.05,1.39-.23,1.84-.53.45-.3.81-.67,1.07-1.1s.49-.89.67-1.37c.18-.48.37-.95.56-1.38.19-.44.46-.8.8-1.08.28-.22.56-.38.84-.47.28-.09.54-.13.76-.13.84,0,1.46.24,1.85.71s.57,1.03.56,1.67c-.02.41-.12.79-.3,1.14-.18.35-.43.61-.75.8-.32.19-.69.28-1.13.28-.55,0-.97-.15-1.26-.45-.28-.3-.42-.65-.4-1.05,0-.54.17-1.01.52-1.42.34-.41.74-.73,1.19-.96-.05-.07-.11-.12-.18-.16-.07-.03-.15-.05-.23-.05Z"/>
    <path class="st2" d="M177.54,262.14c.29-.86.2-1.29-.29-1.29-.31,0-.6.16-.85.47s-.53.84-.8,1.58l-.52,1.32h-.49l.72-1.97c.24-.69.55-1.23.92-1.6.37-.38.79-.65,1.24-.82.46-.16.94-.25,1.44-.25.6,0,1.08.11,1.42.34.34.22.58.51.7.87.12.35.16.74.13,1.17-.04.42-.12.84-.26,1.26l-2.72,7.92c-.16.47-.19.8-.12,1,.08.2.24.3.48.3.22,0,.47-.13.74-.39.27-.26.57-.81.89-1.66l.47-1.24h.49l-.67,1.89c-.24.71-.55,1.25-.93,1.63-.38.38-.79.65-1.23.8-.44.16-.88.23-1.33.23-.74,0-1.31-.16-1.7-.49-.39-.33-.6-.8-.63-1.42-.04-.62.09-1.35.36-2.2l2.54-7.43ZM178.53,255.62c.03-.74.31-1.31.82-1.71.51-.4,1.12-.6,1.83-.6.64,0,1.13.15,1.46.45.34.3.49.72.45,1.26-.04.67-.31,1.22-.83,1.64-.52.42-1.14.63-1.86.63-.6,0-1.07-.15-1.41-.45s-.49-.71-.45-1.23Z"/>
    <path class="st2" d="M184.04,276.92c.81-.4,1.65-.94,2.51-1.62.86-.68,1.74-1.6,2.64-2.76.97-1.19,1.81-2.48,2.54-3.87.72-1.39,1.26-2.72,1.6-4-.41-.24-.81-.53-1.18-.87s-.67-.71-.89-1.13c-.22-.41-.33-.86-.31-1.35,0-.55.16-.98.47-1.29s.73-.47,1.27-.47c.6,0,1.04.21,1.31.62s.4.99.4,1.73c0,.81-.14,1.7-.41,2.67-.28.97-.66,1.96-1.14,2.99-.48,1.03-1.03,2.02-1.63,2.99-.6.97-1.24,1.85-1.92,2.64-.54.67-1.13,1.3-1.8,1.89-.67.59-1.36,1.11-2.1,1.58s-1.5.84-2.29,1.11c-.38.14-.72.24-1.04.3s-.58.09-.8.09c-.55,0-.99-.13-1.31-.38-.32-.25-.48-.61-.48-1.07s.17-.83.5-1.14.76-.47,1.28-.47c.55,0,1.06.16,1.51.48.46.32.88.75,1.26,1.31ZM190.23,271.75l-2.77,3.13-2.07-12.71c-.09-.47-.17-.79-.26-.96-.09-.17-.22-.26-.41-.26-.17,0-.35.12-.52.35-.17.23-.41.75-.7,1.57l-.47,1.27h-.49l.65-1.89c.36-1.05.82-1.76,1.37-2.12.55-.36,1.16-.54,1.81-.54.71,0,1.28.19,1.71.58s.72,1.13.88,2.21l1.27,9.37Z"/>
    <path class="st2" d="M198.15,267.71c.71-.28,1.38-.59,2.02-.93.64-.34,1.18-.72,1.63-1.14.67-.6,1.21-1.31,1.62-2.11.41-.8.61-1.67.61-2.6,0-.34-.03-.57-.1-.69s-.17-.17-.31-.17c-.38,0-.79.19-1.23.58-.44.39-.88.91-1.31,1.55-.43.65-.82,1.39-1.18,2.21s-.64,1.69-.85,2.59-.32,1.77-.32,2.61c0,.97.19,1.63.56,1.98.37.35.85.53,1.44.53.47,0,1.04-.16,1.73-.47.69-.31,1.37-.86,2.04-1.66l.42.21c-.36.57-.84,1.12-1.42,1.66-.59.54-1.27.97-2.05,1.31-.78.34-1.62.5-2.54.5-.78,0-1.47-.14-2.08-.41-.61-.28-1.1-.69-1.45-1.23-.35-.54-.53-1.21-.53-2.01,0-.91.15-1.85.45-2.82s.73-1.9,1.28-2.81c.55-.91,1.22-1.73,1.99-2.46.78-.73,1.64-1.31,2.59-1.73.95-.42,1.96-.63,3.03-.63.76,0,1.4.17,1.92.5.52.34.78.85.78,1.54s-.19,1.3-.56,1.89-.87,1.12-1.49,1.61-1.32.92-2.08,1.29c-.77.38-1.55.71-2.36.98-.8.28-1.56.49-2.27.65l.03-.34Z"/>
  </g>
</svg>