<?xml version="1.0" encoding="UTF-8" standalone="no"?>
<svg
   id="Layer_1"
   width="773.80798"
   height="191.55"
   version="1.1"
   viewBox="0 0 773.80799 191.55001"
   sodipodi:docname="wlm-logo-h.svg"
   inkscape:version="1.3.2 (1:1.3.2+202311252150+091e20ef0f)"
   xmlns:inkscape="http://www.inkscape.org/namespaces/inkscape"
   xmlns:sodipodi="http://sodipodi.sourceforge.net/DTD/sodipodi-0.dtd"
   xmlns="http://www.w3.org/2000/svg"
   xmlns:svg="http://www.w3.org/2000/svg">
  <sodipodi:namedview
     id="namedview31"
     pagecolor="#ffffff"
     bordercolor="#000000"
     borderopacity="0.25"
     inkscape:showpageshadow="2"
     inkscape:pageopacity="0.0"
     inkscape:pagecheckerboard="0"
     inkscape:deskcolor="#d1d1d1"
     inkscape:zoom="0.50457742"
     inkscape:cx="104.04746"
     inkscape:cy="137.73902"
     inkscape:window-width="1920"
     inkscape:window-height="1031"
     inkscape:window-x="0"
     inkscape:window-y="25"
     inkscape:window-maximized="1"
     inkscape:current-layer="Layer_1" />
  <!-- Generator: Adobe Illustrator 29.8.1, SVG Export Plug-In . SVG Version: 2.1.1 Build 2)  -->
  <defs
     id="defs1">
    <style
       id="style1">
      .st0 {
        fill: #4d4d4d;
      }

      .st1 {
        fill: #fff;
      }

      .st2 {
        fill: #8f0000;
      }

      .st3 {
        fill: #666;
      }

      .st4 {
        fill: #b3b3b3;
      }
    </style>
  </defs>
  <g
     id="g34"
     transform="translate(209.36284,216.12019)">
    <circle
       class="st4"
       cx="-117.10284"
       cy="-123.86018"
       r="92.260002"
       id="circle1" />
    <circle
       class="st2"
       cx="-112.75285"
       cy="-119.58018"
       r="87.980003"
       id="circle2" />
    <path
       class="st4"
       d="m -171.48284,-141.13018 c 16.92,-20.45 48.92,-23.62 25.24,4.86 m 97.44,15.31 4.16,-21.04 c -26.45,-6.42 -67.77,-22.13 -67.77,-22.13 l -23.55,14.07"
       id="path2" />
    <path
       class="st3"
       d="m -133.91284,-74.63018 15.15,27.75 25.7,-25.13 c 0,0 -7.61,-26.28 8.7,-31.52 m 50.25,-37.4 13.68,-10.93 -9.65,89.25 -18.67,38.04 m -81.77,-148.2 21.61,-8.53 -3.52,17.15 -15.54,14.3 m 46.29,17.39 14.83,-15.86 3.77,-17.77 -20.59,12.6"
       id="path3" />
    <path
       class="st4"
       d="m -60.26284,-148.03018 16.88,-11.45 22.89,7.61 -12.28,13.04 m -115.34,-38.59 20.82,-10.13 18.29,6.27 -17.13,10.99 m 23.21,7.44 18.03,-10.54 21.8,7.31 -15.98,11.75 m 42.07,44.4 13.81,-17.07 c 8.5,-0.26 19.12,2.17 24.87,8.63 24.1,27.3 -11,55.3 -11,55.3"
       id="path4" />
    <path
       class="st1"
       d="m -102.90284,-162.85018 -1.79,21.08 -23.27,-8.12 1.85,-20.41 -21.97,-7.12 1.2,30.98 c -5.7,-3.77 -13.87,-5.82 -22.57,2.94 -10.79,10.74 -6.6,32.73 8.15,39.7 7.63,3.58 12.79,4.48 16.21,4.35 l 1.34,35.93 c 0,0 10.17,8.18 25,16.62 -2.56,-7.74 -7.86,-27.62 2.69,-36.38 11.38,-9.33 30.43,-10.29 41.37,11.89 8.95,18.29 -0.77,32.86 -5.88,38.74 16.18,4.28 31.84,8.06 31.84,8.06 l 5.18,-37.66 c 4.09,2.24 15.09,7.61 22.7,5.69 21.93,-5.56 21.16,-29.99 10.17,-43.67 -9.01,-11.25 -22.38,-10.29 -26.28,-9.72 l 4.22,-28.9 -27.49,-9.21 -1.6,20.59 -19.63,-6.52 2.43,-20.35"
       id="path5" />
  </g>
  <g
     id="g33"
     transform="matrix(2.6133967,0,0,2.6133967,233.09621,-544.33019)">
    <g
       id="g12">
      <path
         class="st2"
         d="m 6.14,269.53 5.21,-0.49 c 0.22,0.62 0.52,1.06 0.9,1.33 0.38,0.27 0.9,0.4 1.55,0.4 0.7,0 1.25,-0.15 1.64,-0.45 0.3,-0.22 0.45,-0.5 0.45,-0.84 0,-0.38 -0.2,-0.67 -0.59,-0.88 -0.28,-0.14 -1.04,-0.33 -2.26,-0.54 -1.83,-0.32 -3.09,-0.61 -3.8,-0.88 -0.71,-0.27 -1.31,-0.73 -1.79,-1.37 -0.49,-0.64 -0.73,-1.38 -0.73,-2.2 0,-0.9 0.26,-1.68 0.79,-2.33 0.53,-0.65 1.25,-1.14 2.16,-1.46 0.92,-0.32 2.15,-0.48 3.7,-0.48 1.63,0 2.84,0.12 3.62,0.37 0.78,0.25 1.43,0.64 1.95,1.16 0.52,0.52 0.95,1.23 1.3,2.13 l -4.98,0.49 c -0.13,-0.44 -0.34,-0.76 -0.64,-0.97 -0.41,-0.28 -0.91,-0.41 -1.5,-0.41 -0.59,0 -1.03,0.11 -1.3,0.32 -0.27,0.21 -0.41,0.47 -0.41,0.77 0,0.33 0.17,0.59 0.52,0.76 0.35,0.17 1.09,0.33 2.24,0.47 1.75,0.2 3.05,0.47 3.9,0.83 0.85,0.35 1.5,0.85 1.95,1.51 0.45,0.65 0.68,1.37 0.68,2.15 0,0.78 -0.24,1.56 -0.72,2.31 -0.48,0.75 -1.23,1.34 -2.26,1.79 -1.03,0.45 -2.42,0.67 -4.2,0.67 -2.5,0 -4.28,-0.36 -5.34,-1.07 -1.06,-0.71 -1.74,-1.73 -2.04,-3.05 v -0.02 z"
         id="path6" />
      <path
         class="st2"
         d="M 38.7,267.79 H 28.17 c 0.09,0.84 0.32,1.47 0.68,1.88 0.5,0.59 1.17,0.89 1.99,0.89 0.52,0 1,-0.13 1.47,-0.39 0.28,-0.16 0.59,-0.45 0.92,-0.87 l 5.17,0.48 c -0.79,1.38 -1.75,2.36 -2.86,2.96 -1.12,0.6 -2.72,0.9 -4.81,0.9 -1.81,0 -3.24,-0.26 -4.28,-0.77 -1.04,-0.51 -1.9,-1.33 -2.59,-2.44 -0.68,-1.12 -1.03,-2.42 -1.03,-3.93 0,-2.14 0.69,-3.87 2.06,-5.2 1.37,-1.33 3.26,-1.99 5.68,-1.99 1.96,0 3.51,0.29 4.64,0.89 1.13,0.6 2,1.45 2.59,2.58 0.59,1.13 0.89,2.59 0.89,4.4 v 0.59 0 z m -5.34,-2.52 c -0.11,-1.02 -0.38,-1.74 -0.82,-2.18 -0.44,-0.44 -1.03,-0.66 -1.75,-0.66 -0.83,0 -1.5,0.33 -2,0.99 -0.32,0.41 -0.52,1.03 -0.6,1.84 h 5.17 z"
         id="path7" />
      <path
         class="st2"
         d="m 39.17,259.64 h 5.46 l 2.66,8.68 2.76,-8.68 h 5.3 l -5.82,13.69 h -4.66 z"
         id="path8" />
      <path
         class="st2"
         d="m 57.33,254.43 h 5.25 V 258 h -5.25 z m 0,5.21 h 5.25 v 13.69 h -5.25 z"
         id="path9" />
      <path
         class="st2"
         d="m 64.71,259.64 h 5.54 l 2.82,9.12 2.62,-9.12 h 5.17 l -5.43,14.63 c -0.62,1.67 -1.25,2.8 -1.9,3.38 -0.91,0.83 -2.3,1.24 -4.16,1.24 -0.75,0 -1.93,-0.11 -3.51,-0.31 l -0.41,-3.66 c 0.75,0.24 1.6,0.36 2.52,0.36 0.62,0 1.12,-0.14 1.5,-0.43 0.38,-0.28 0.7,-0.79 0.97,-1.53 l -5.75,-13.69 v 0 z"
         id="path10" />
      <path
         class="st2"
         d="m 81.55,266.52 c 0,-2.09 0.7,-3.81 2.11,-5.17 1.41,-1.35 3.31,-2.03 5.72,-2.03 2.74,0 4.82,0.79 6.21,2.39 1.13,1.28 1.69,2.86 1.69,4.73 0,2.11 -0.7,3.83 -2.1,5.18 -1.4,1.35 -3.33,2.02 -5.8,2.02 -2.2,0 -3.98,-0.56 -5.34,-1.68 -1.67,-1.38 -2.5,-3.2 -2.5,-5.44 v 0 z m 5.26,-0.01 c 0,1.22 0.25,2.13 0.74,2.71 0.49,0.58 1.12,0.88 1.86,0.88 0.74,0 1.38,-0.29 1.86,-0.87 0.48,-0.58 0.73,-1.5 0.73,-2.77 0,-1.19 -0.24,-2.07 -0.73,-2.65 -0.49,-0.58 -1.1,-0.87 -1.82,-0.87 -0.77,0 -1.4,0.29 -1.9,0.88 -0.5,0.59 -0.75,1.49 -0.75,2.69 v 0 z"
         id="path11" />
      <path
         class="st2"
         d="m 100.16,259.64 h 4.92 v 2.24 c 0.47,-0.97 0.96,-1.64 1.46,-2 0.5,-0.37 1.13,-0.55 1.86,-0.55 0.73,0 1.62,0.24 2.54,0.72 l -1.63,3.74 c -0.62,-0.26 -1.11,-0.39 -1.47,-0.39 -0.69,0 -1.22,0.28 -1.6,0.85 -0.54,0.8 -0.81,2.3 -0.81,4.49 v 4.59 h -5.28 v -13.69 0 z"
         id="path12" />
    </g>
    <g
       id="g25">
      <g
         id="g16">
        <path
           class="st0"
           d="m 23.26,217.67 c 1.59,0.04 3.32,0.08 4.21,0.08 0.89,0 2.24,-0.04 3.4,-0.08 0.23,0.23 0.23,1.04 0,1.28 -2.44,0.27 -3.06,1.76 -3.8,3.59 l -7.99,19.71 c -0.22,0.55 -0.51,0.89 -0.93,0.89 -0.38,0 -0.66,-0.29 -0.89,-0.89 L 9.63,222.46 C 8.6,219.79 8.29,219.14 6.17,218.94 5.94,218.71 5.9,217.9 6.13,217.66 c 1.28,0.04 2.61,0.08 4.02,0.08 1.41,0 3.13,-0.04 4.67,-0.08 0.23,0.23 0.23,1.04 0,1.28 -2.63,0.27 -2.85,0.79 -1.96,3.09 l 6.15,15.73 h 0.18 l 6.11,-15.5 c 0.82,-2.1 0.81,-3.13 -2.05,-3.32 -0.23,-0.23 -0.23,-1.04 0,-1.28 v 0 z"
           id="path13" />
        <path
           class="st0"
           d="m 43.08,241.48 c 0.23,0.23 0.23,1.04 0,1.28 -1.74,-0.04 -3.61,-0.08 -4.99,-0.08 -1.38,0 -3.29,0.04 -5.03,0.08 -0.23,-0.23 -0.23,-1.04 0,-1.28 2.7,-0.12 3.36,-0.31 3.36,-3.52 v -15.5 c 0,-3.21 -0.66,-3.4 -3.36,-3.52 -0.23,-0.23 -0.23,-1.04 0,-1.28 1.82,0.04 3.69,0.08 4.99,0.08 1.49,0 3.32,-0.04 5.03,-0.08 0.23,0.23 0.23,1.04 0,1.28 -2.7,0.12 -3.36,0.31 -3.36,3.52 v 15.5 c 0,3.21 0.66,3.4 3.36,3.52 z M 38.1,211.56 c 1.08,0 2.01,0.93 2.01,2.01 0,1.08 -0.93,2.01 -2.01,2.01 -1.08,0 -2.01,-0.93 -2.01,-2.01 0,-1.08 0.93,-2.01 2.01,-2.01 z"
           id="path14" />
        <path
           class="st0"
           d="m 55.76,241.48 c 0.23,0.23 0.23,1.04 0,1.28 -1.74,-0.04 -3.52,-0.08 -4.99,-0.08 -1.47,0 -3.29,0.04 -5.03,0.08 -0.23,-0.23 -0.23,-1.04 0,-1.28 2.7,-0.12 3.36,-0.31 3.36,-3.52 v -15.5 c 0,-3.21 -0.66,-3.4 -3.36,-3.52 -0.23,-0.23 -0.23,-1.04 0,-1.28 1.74,0.04 3.5,0.08 4.99,0.08 1.41,0 3.25,-0.04 5.03,-0.08 0.23,0.23 0.23,1.04 0,1.28 -2.7,0.12 -3.36,0.31 -3.36,3.52 v 6.79 c 1.36,-0.12 2.23,-0.62 3.06,-1.5 l 6.38,-6.8 c 1.63,-1.73 0.31,-1.88 -1.08,-2.01 -0.23,-0.23 -0.23,-1.04 0,-1.28 1.43,0.04 2.93,0.08 4.37,0.08 1.25,0 2.47,-0.04 3.67,-0.08 0.23,0.23 0.23,1.04 0,1.28 -1.55,0.12 -3.09,0.27 -4.87,2.16 l -5.68,5.84 c -1.32,1.36 -1.36,1.62 -1.36,1.89 0,0.31 0.2,0.61 0.51,0.97 l 8.47,10.05 c 1.18,1.4 2.28,1.52 3.4,1.62 0.23,0.23 0.23,1.04 0,1.28 -1.27,-0.04 -2.59,-0.08 -3.91,-0.08 -0.82,0 -1.32,0.04 -2.08,0.08 -0.15,0 -0.18,-0.12 -0.19,-0.23 -0.08,-0.62 -0.61,-1.68 -1.39,-2.67 l -6.07,-7.65 c -0.79,-0.99 -1.9,-1.43 -3.21,-1.46 v 7.22 c 0,3.21 0.66,3.4 3.36,3.52 v 0 z"
           id="path15" />
        <path
           class="st0"
           d="m 81.58,241.48 c 0.23,0.23 0.23,1.04 0,1.28 -1.74,-0.04 -3.61,-0.08 -4.99,-0.08 -1.38,0 -3.29,0.04 -5.03,0.08 -0.23,-0.23 -0.23,-1.04 0,-1.28 2.7,-0.12 3.36,-0.31 3.36,-3.52 v -15.5 c 0,-3.21 -0.66,-3.4 -3.36,-3.52 -0.23,-0.23 -0.23,-1.04 0,-1.28 1.82,0.04 3.69,0.08 4.99,0.08 1.49,0 3.32,-0.04 5.03,-0.08 0.23,0.23 0.23,1.04 0,1.28 -2.7,0.12 -3.36,0.31 -3.36,3.52 v 15.5 c 0,3.21 0.66,3.4 3.36,3.52 z m -4.99,-29.92 c 1.08,0 2.01,0.93 2.01,2.01 0,1.08 -0.93,2.01 -2.01,2.01 -1.08,0 -2.01,-0.93 -2.01,-2.01 0,-1.08 0.93,-2.01 2.01,-2.01 z"
           id="path16" />
      </g>
      <g
         id="g24">
        <path
           class="st0"
           d="m 95.61,231.99 -5.78,-0.61 c 0.22,-1.01 0.53,-1.8 0.95,-2.38 0.41,-0.58 1,-1.08 1.78,-1.51 0.56,-0.31 1.32,-0.54 2.29,-0.72 0.97,-0.17 2.02,-0.25 3.15,-0.25 1.82,0 3.27,0.1 4.37,0.31 1.1,0.21 2.01,0.63 2.75,1.27 0.52,0.45 0.92,1.07 1.22,1.89 0.3,0.82 0.45,1.6 0.45,2.34 v 6.97 c 0,0.74 0.04,1.32 0.14,1.75 0.1,0.43 0.3,0.96 0.61,1.61 h -5.68 c -0.23,-0.4 -0.38,-0.72 -0.45,-0.93 -0.07,-0.21 -0.14,-0.55 -0.21,-1 -0.79,0.76 -1.58,1.3 -2.37,1.64 -1.07,0.43 -2.31,0.65 -3.73,0.65 -1.88,0 -3.31,-0.43 -4.29,-1.3 -0.98,-0.87 -1.46,-1.94 -1.46,-3.22 0,-1.2 0.35,-2.19 1.05,-2.95 0.7,-0.77 2,-1.35 3.89,-1.73 2.27,-0.45 3.74,-0.77 4.41,-0.96 0.67,-0.19 1.39,-0.42 2.14,-0.72 0,-0.74 -0.15,-1.27 -0.46,-1.56 -0.31,-0.29 -0.84,-0.45 -1.62,-0.45 -0.99,0 -1.73,0.16 -2.23,0.47 -0.38,0.25 -0.7,0.72 -0.93,1.39 v 0 z m 5.25,3.18 c -0.83,0.29 -1.7,0.56 -2.6,0.79 -1.23,0.33 -2.01,0.65 -2.33,0.97 -0.34,0.33 -0.51,0.7 -0.51,1.11 0,0.47 0.17,0.86 0.5,1.16 0.33,0.3 0.82,0.45 1.46,0.45 0.64,0 1.3,-0.16 1.88,-0.49 0.58,-0.33 0.99,-0.72 1.23,-1.2 0.24,-0.47 0.36,-1.08 0.36,-1.83 v -0.97 0 z"
           id="path17" />
        <path
           class="st0"
           d="m 110.74,226.88 h 5.63 v 2.57 c 0.84,-1.05 1.69,-1.8 2.56,-2.25 0.86,-0.45 1.91,-0.68 3.15,-0.68 1.68,0 2.99,0.5 3.93,1.5 0.95,1 1.42,2.53 1.42,4.62 v 10.03 h -6.08 v -8.68 c 0,-0.99 -0.19,-1.69 -0.55,-2.1 -0.36,-0.41 -0.88,-0.61 -1.55,-0.61 -0.74,0 -1.33,0.27 -1.78,0.83 -0.45,0.56 -0.68,1.55 -0.68,2.99 v 7.58 h -6.05 v -15.78 0 z"
           id="path18" />
        <path
           class="st0"
           d="m 131.59,226.88 h 6.05 v 15.78 h -6.05 z"
           id="path19" />
        <path
           class="st0"
           d="m 149.13,220.88 v 6 h 3.33 v 4.43 h -3.33 v 5.59 c 0,0.67 0.06,1.12 0.19,1.34 0.2,0.34 0.54,0.51 1.04,0.51 0.45,0 1.07,-0.13 1.87,-0.38 l 0.45,4.17 c -1.5,0.33 -2.89,0.49 -4.19,0.49 -1.51,0 -2.61,-0.19 -3.33,-0.58 -0.72,-0.39 -1.24,-0.97 -1.59,-1.76 -0.34,-0.79 -0.51,-2.06 -0.51,-3.82 v -5.55 h -2.23 v -4.43 h 2.23 v -2.9 l 6.06,-3.11 v 0 z"
           id="path20" />
        <path
           class="st0"
           d="m 155.89,220.88 h 6.06 v 21.78 h -6.06 z"
           id="path21" />
        <path
           class="st0"
           d="m 171.67,231.99 -5.78,-0.61 c 0.22,-1.01 0.53,-1.8 0.95,-2.38 0.41,-0.58 1,-1.08 1.78,-1.51 0.56,-0.31 1.32,-0.54 2.29,-0.72 0.97,-0.17 2.02,-0.25 3.15,-0.25 1.81,0 3.27,0.1 4.37,0.31 1.1,0.21 2.01,0.63 2.75,1.27 0.52,0.45 0.92,1.07 1.22,1.89 0.3,0.82 0.45,1.6 0.45,2.34 v 6.97 c 0,0.74 0.04,1.32 0.14,1.75 0.1,0.43 0.3,0.96 0.61,1.61 h -5.68 c -0.23,-0.4 -0.38,-0.72 -0.45,-0.93 -0.07,-0.21 -0.14,-0.55 -0.21,-1 -0.79,0.76 -1.58,1.3 -2.37,1.64 -1.07,0.43 -2.31,0.65 -3.73,0.65 -1.88,0 -3.31,-0.43 -4.29,-1.3 -0.98,-0.87 -1.46,-1.94 -1.46,-3.22 0,-1.2 0.35,-2.19 1.05,-2.95 0.7,-0.77 2,-1.35 3.89,-1.73 2.27,-0.45 3.74,-0.77 4.41,-0.96 0.67,-0.19 1.39,-0.42 2.14,-0.72 0,-0.74 -0.15,-1.27 -0.46,-1.56 -0.31,-0.29 -0.84,-0.45 -1.62,-0.45 -0.99,0 -1.73,0.16 -2.23,0.47 -0.38,0.25 -0.7,0.72 -0.93,1.39 v 0 z m 5.24,3.18 c -0.83,0.29 -1.7,0.56 -2.6,0.79 -1.23,0.33 -2.01,0.65 -2.33,0.97 -0.34,0.33 -0.51,0.7 -0.51,1.11 0,0.47 0.17,0.86 0.5,1.16 0.33,0.3 0.82,0.45 1.46,0.45 0.64,0 1.3,-0.16 1.88,-0.49 0.58,-0.33 0.99,-0.72 1.23,-1.2 0.24,-0.48 0.36,-1.08 0.36,-1.83 v -0.97 0 z"
           id="path22" />
        <path
           class="st0"
           d="m 186.84,226.88 h 5.66 v 2.58 c 0.54,-1.12 1.11,-1.89 1.69,-2.31 0.58,-0.42 1.3,-0.63 2.15,-0.63 0.85,0 1.87,0.27 2.93,0.83 l -1.87,4.31 c -0.72,-0.29 -1.28,-0.45 -1.69,-0.45 -0.79,0 -1.41,0.33 -1.84,0.98 -0.63,0.92 -0.93,2.65 -0.93,5.17 v 5.29 h -6.08 v -15.78 0 z"
           id="path23" />
        <path
           class="st0"
           d="m 200.85,226.88 h 6.05 v 15.78 h -6.05 z"
           id="path24" />
      </g>
    </g>
    <g
       id="g31">
      <path
         class="st2"
         d="m 136.38,251.11 c 0.62,0 1.11,0.19 1.46,0.56 0.35,0.37 0.53,0.79 0.53,1.26 0,0.55 -0.16,1.04 -0.48,1.45 -0.32,0.41 -0.75,0.75 -1.31,1.01 -0.52,0.24 -1.14,0.43 -1.86,0.56 -0.72,0.13 -1.54,0.19 -2.46,0.19 -0.64,0 -1.33,-0.03 -2.06,-0.09 -0.73,-0.06 -1.48,-0.13 -2.25,-0.22 -0.77,-0.09 -1.52,-0.16 -2.25,-0.22 -0.73,-0.06 -1.42,-0.09 -2.06,-0.09 -0.59,0 -1.15,0.03 -1.68,0.09 -0.53,0.06 -0.95,0.18 -1.24,0.35 0.45,0.12 0.82,0.37 1.11,0.75 0.29,0.38 0.44,0.83 0.44,1.35 0,0.59 -0.19,1.1 -0.56,1.53 -0.37,0.43 -0.86,0.65 -1.46,0.65 -0.6,0 -1.07,-0.2 -1.38,-0.61 -0.32,-0.41 -0.48,-0.88 -0.48,-1.44 0,-0.41 0.12,-0.86 0.35,-1.33 0.23,-0.47 0.68,-0.87 1.33,-1.18 0.41,-0.21 0.85,-0.35 1.29,-0.44 0.45,-0.09 0.87,-0.14 1.27,-0.16 0.4,-0.02 0.7,-0.03 0.91,-0.03 1.07,0 2.11,0.05 3.13,0.14 1.02,0.1 2.01,0.19 2.99,0.29 0.98,0.09 1.92,0.14 2.83,0.14 0.67,0 1.24,-0.03 1.7,-0.1 0.46,-0.07 0.88,-0.17 1.25,-0.31 l -0.05,0.21 c -0.26,-0.21 -0.5,-0.5 -0.72,-0.88 -0.22,-0.38 -0.34,-0.81 -0.34,-1.29 0,-0.62 0.19,-1.13 0.56,-1.53 0.37,-0.4 0.87,-0.6 1.49,-0.6 z m -9.58,4.38 c 0.54,0.05 1,0.1 1.4,0.13 0.4,0.03 0.79,0.07 1.19,0.1 0.4,0.03 0.87,0.08 1.42,0.13 l -3.86,14.47 c -0.16,0.62 -0.21,1.11 -0.17,1.46 0.04,0.35 0.23,0.6 0.57,0.75 0.34,0.15 0.85,0.24 1.54,0.27 l -0.1,0.52 c -0.54,-0.03 -1.23,-0.06 -2.1,-0.06 -0.87,0 -1.76,-0.01 -2.69,-0.01 -0.93,0 -1.76,0 -2.58,0.01 -0.82,0 -1.48,0.03 -1.98,0.06 l 0.1,-0.52 c 0.72,-0.03 1.3,-0.12 1.72,-0.27 0.42,-0.15 0.75,-0.4 0.98,-0.75 0.23,-0.35 0.43,-0.84 0.58,-1.46 l 3.96,-14.83 z"
         id="path25" />
      <path
         class="st2"
         d="m 142.21,264.24 c -0.64,1.9 -1.25,3.46 -1.84,4.7 -0.59,1.23 -1.16,2.19 -1.72,2.87 -0.56,0.68 -1.13,1.17 -1.72,1.45 -0.59,0.28 -1.21,0.43 -1.86,0.43 -0.73,0 -1.28,-0.16 -1.67,-0.47 -0.39,-0.31 -0.6,-0.76 -0.65,-1.35 -0.04,-0.59 0.06,-1.29 0.32,-2.1 l 2.51,-7.64 c 0.17,-0.5 0.21,-0.84 0.12,-1.02 -0.09,-0.18 -0.25,-0.27 -0.45,-0.27 -0.22,0 -0.47,0.12 -0.75,0.38 -0.28,0.26 -0.57,0.81 -0.88,1.67 l -0.47,1.24 h -0.49 l 0.65,-1.89 c 0.26,-0.72 0.58,-1.28 0.97,-1.66 0.39,-0.38 0.8,-0.64 1.24,-0.79 0.44,-0.15 0.86,-0.22 1.26,-0.22 0.78,0 1.35,0.17 1.73,0.5 0.38,0.34 0.59,0.81 0.62,1.42 0.04,0.61 -0.09,1.34 -0.36,2.19 l -2.33,6.99 c -0.38,1.14 -0.29,1.71 0.26,1.71 0.33,0 0.7,-0.22 1.11,-0.65 0.41,-0.43 0.85,-1.03 1.31,-1.79 0.46,-0.76 0.91,-1.65 1.36,-2.67 0.45,-1.02 0.88,-2.11 1.29,-3.29 0.42,-1.17 0.78,-2.37 1.09,-3.6 l -0.65,3.83 z m -5.34,-8.41 c 0,-0.69 0.22,-1.23 0.67,-1.61 0.45,-0.38 0.97,-0.57 1.55,-0.57 0.55,0 0.97,0.16 1.26,0.48 0.28,0.32 0.43,0.73 0.43,1.23 0,0.47 -0.11,0.86 -0.32,1.19 -0.22,0.33 -0.5,0.57 -0.84,0.74 -0.35,0.16 -0.71,0.25 -1.09,0.25 -0.57,0 -0.99,-0.16 -1.26,-0.47 -0.27,-0.31 -0.4,-0.72 -0.4,-1.24 z m 6.61,15.3 c -0.12,0.43 -0.17,0.75 -0.16,0.97 0.02,0.22 0.16,0.32 0.44,0.32 0.31,0 0.6,-0.15 0.87,-0.45 0.27,-0.3 0.53,-0.83 0.79,-1.59 l 0.49,-1.32 h 0.49 l -0.7,1.97 c -0.22,0.67 -0.52,1.2 -0.89,1.59 -0.37,0.39 -0.78,0.67 -1.22,0.83 -0.44,0.16 -0.89,0.25 -1.36,0.25 -0.47,0 -0.86,-0.08 -1.18,-0.23 -0.32,-0.16 -0.57,-0.37 -0.74,-0.65 -0.17,-0.33 -0.25,-0.72 -0.22,-1.18 0.03,-0.46 0.11,-0.98 0.25,-1.57 l 2.62,-10.12 c 0.71,-0.02 1.38,-0.05 2.01,-0.1 0.63,-0.05 1.21,-0.14 1.75,-0.26 l -3.24,11.55 z m -0.73,-15.3 c 0,-0.69 0.23,-1.23 0.69,-1.61 0.46,-0.38 0.97,-0.57 1.54,-0.57 0.57,0 0.99,0.16 1.27,0.48 0.28,0.32 0.42,0.73 0.42,1.23 0,0.47 -0.11,0.86 -0.32,1.19 -0.22,0.33 -0.49,0.57 -0.83,0.74 -0.34,0.17 -0.7,0.25 -1.07,0.25 -0.57,0 -0.99,-0.16 -1.27,-0.47 -0.28,-0.31 -0.41,-0.72 -0.41,-1.24 z"
         id="path26" />
      <path
         class="st2"
         d="m 151.53,273.33 h -3.65 l 3.16,-11.18 c 0.12,-0.47 0.16,-0.8 0.12,-1 -0.04,-0.2 -0.18,-0.3 -0.4,-0.3 -0.31,0 -0.6,0.15 -0.85,0.45 -0.25,0.3 -0.54,0.83 -0.83,1.59 l -0.49,1.32 h -0.49 l 0.7,-1.97 c 0.26,-0.69 0.57,-1.23 0.93,-1.6 0.36,-0.38 0.77,-0.65 1.23,-0.82 0.46,-0.16 0.93,-0.25 1.41,-0.25 0.55,0 0.97,0.11 1.27,0.32 0.29,0.22 0.49,0.5 0.59,0.87 0.1,0.37 0.14,0.75 0.12,1.18 -0.03,0.42 -0.09,0.84 -0.19,1.26 l -2.62,10.12 z m 6.62,-13.18 c -0.35,0 -0.72,0.1 -1.11,0.31 -0.4,0.21 -0.8,0.58 -1.22,1.11 -0.42,0.53 -0.85,1.28 -1.31,2.23 -0.46,0.95 -0.92,2.16 -1.4,3.64 -0.48,1.48 -0.96,3.26 -1.46,5.35 l 0.57,-3.49 c 0.55,-1.9 1.05,-3.47 1.5,-4.71 0.45,-1.24 0.9,-2.23 1.36,-2.96 0.46,-0.73 0.94,-1.26 1.45,-1.57 0.51,-0.31 1.09,-0.47 1.75,-0.47 0.66,0 1.19,0.2 1.55,0.59 0.36,0.4 0.54,0.9 0.54,1.5 0,0.48 -0.11,0.93 -0.32,1.33 -0.22,0.41 -0.51,0.73 -0.88,0.98 -0.37,0.25 -0.79,0.38 -1.26,0.38 -0.5,0 -0.89,-0.13 -1.17,-0.4 -0.28,-0.27 -0.41,-0.65 -0.41,-1.15 0,-0.41 0.09,-0.8 0.29,-1.15 0.19,-0.35 0.45,-0.66 0.78,-0.92 0.33,-0.26 0.69,-0.43 1.09,-0.52 -0.05,-0.02 -0.1,-0.03 -0.16,-0.05 -0.05,-0.02 -0.11,-0.03 -0.18,-0.03 z"
         id="path27" />
      <path
         class="st2"
         d="m 162.84,273.33 h -3.65 l 5.13,-17.27 c 0.17,-0.59 0.16,-1.02 -0.05,-1.29 -0.21,-0.27 -0.73,-0.41 -1.58,-0.41 l 0.16,-0.54 c 1.22,-0.02 2.32,-0.12 3.29,-0.3 0.97,-0.18 1.88,-0.44 2.74,-0.76 l -6.03,20.58 z m 7.02,-2 c -0.09,0.41 -0.1,0.7 -0.03,0.85 0.07,0.16 0.21,0.23 0.41,0.23 0.22,0 0.47,-0.13 0.74,-0.4 0.27,-0.27 0.55,-0.82 0.84,-1.64 l 0.47,-1.24 h 0.49 l -0.65,1.89 c -0.24,0.71 -0.57,1.25 -0.97,1.64 -0.4,0.39 -0.85,0.66 -1.32,0.8 -0.47,0.14 -0.95,0.22 -1.44,0.22 -0.85,0 -1.45,-0.25 -1.81,-0.76 -0.36,-0.51 -0.44,-1.25 -0.23,-2.21 l 0.44,-1.99 c 0.22,-0.93 0.18,-1.6 -0.14,-2.02 -0.32,-0.41 -1.03,-0.67 -2.14,-0.78 v -0.1 c 0.76,-0.05 1.51,-0.05 2.26,0.01 0.75,0.06 1.42,0.21 1.99,0.45 0.58,0.24 1.01,0.62 1.29,1.13 0.28,0.51 0.34,1.18 0.17,2.01 l -0.39,1.92 z m 1.19,-11.23 c -0.22,0 -0.42,0.03 -0.6,0.1 -0.18,0.07 -0.34,0.16 -0.49,0.28 -0.31,0.24 -0.56,0.59 -0.75,1.04 -0.19,0.45 -0.38,0.93 -0.58,1.44 -0.2,0.51 -0.44,0.99 -0.72,1.44 -0.28,0.45 -0.67,0.82 -1.15,1.1 -0.48,0.29 -1.12,0.42 -1.92,0.4 l -0.26,0.03 0.05,-0.28 c 0.78,-0.05 1.39,-0.23 1.84,-0.53 0.45,-0.3 0.81,-0.67 1.07,-1.1 0.26,-0.43 0.49,-0.89 0.67,-1.37 0.18,-0.48 0.37,-0.95 0.56,-1.38 0.19,-0.44 0.46,-0.8 0.8,-1.08 0.28,-0.22 0.56,-0.38 0.84,-0.47 0.28,-0.09 0.54,-0.13 0.76,-0.13 0.84,0 1.46,0.24 1.85,0.71 0.39,0.47 0.57,1.03 0.56,1.67 -0.02,0.41 -0.12,0.79 -0.3,1.14 -0.18,0.35 -0.43,0.61 -0.75,0.8 -0.32,0.19 -0.69,0.28 -1.13,0.28 -0.55,0 -0.97,-0.15 -1.26,-0.45 -0.28,-0.3 -0.42,-0.65 -0.4,-1.05 0,-0.54 0.17,-1.01 0.52,-1.42 0.34,-0.41 0.74,-0.73 1.19,-0.96 -0.05,-0.07 -0.11,-0.12 -0.18,-0.16 -0.07,-0.03 -0.15,-0.05 -0.23,-0.05 z"
         id="path28" />
      <path
         class="st2"
         d="m 177.54,262.14 c 0.29,-0.86 0.2,-1.29 -0.29,-1.29 -0.31,0 -0.6,0.16 -0.85,0.47 -0.25,0.31 -0.53,0.84 -0.8,1.58 l -0.52,1.32 h -0.49 l 0.72,-1.97 c 0.24,-0.69 0.55,-1.23 0.92,-1.6 0.37,-0.38 0.79,-0.65 1.24,-0.82 0.46,-0.16 0.94,-0.25 1.44,-0.25 0.6,0 1.08,0.11 1.42,0.34 0.34,0.22 0.58,0.51 0.7,0.87 0.12,0.35 0.16,0.74 0.13,1.17 -0.04,0.42 -0.12,0.84 -0.26,1.26 l -2.72,7.92 c -0.16,0.47 -0.19,0.8 -0.12,1 0.08,0.2 0.24,0.3 0.48,0.3 0.22,0 0.47,-0.13 0.74,-0.39 0.27,-0.26 0.57,-0.81 0.89,-1.66 l 0.47,-1.24 h 0.49 l -0.67,1.89 c -0.24,0.71 -0.55,1.25 -0.93,1.63 -0.38,0.38 -0.79,0.65 -1.23,0.8 -0.44,0.16 -0.88,0.23 -1.33,0.23 -0.74,0 -1.31,-0.16 -1.7,-0.49 -0.39,-0.33 -0.6,-0.8 -0.63,-1.42 -0.04,-0.62 0.09,-1.35 0.36,-2.2 l 2.54,-7.43 z m 0.99,-6.52 c 0.03,-0.74 0.31,-1.31 0.82,-1.71 0.51,-0.4 1.12,-0.6 1.83,-0.6 0.64,0 1.13,0.15 1.46,0.45 0.34,0.3 0.49,0.72 0.45,1.26 -0.04,0.67 -0.31,1.22 -0.83,1.64 -0.52,0.42 -1.14,0.63 -1.86,0.63 -0.6,0 -1.07,-0.15 -1.41,-0.45 -0.34,-0.3 -0.49,-0.71 -0.45,-1.23 z"
         id="path29" />
      <path
         class="st2"
         d="m 184.04,276.92 c 0.81,-0.4 1.65,-0.94 2.51,-1.62 0.86,-0.68 1.74,-1.6 2.64,-2.76 0.97,-1.19 1.81,-2.48 2.54,-3.87 0.72,-1.39 1.26,-2.72 1.6,-4 -0.41,-0.24 -0.81,-0.53 -1.18,-0.87 -0.37,-0.34 -0.67,-0.71 -0.89,-1.13 -0.22,-0.41 -0.33,-0.86 -0.31,-1.35 0,-0.55 0.16,-0.98 0.47,-1.29 0.31,-0.31 0.73,-0.47 1.27,-0.47 0.6,0 1.04,0.21 1.31,0.62 0.27,0.41 0.4,0.99 0.4,1.73 0,0.81 -0.14,1.7 -0.41,2.67 -0.28,0.97 -0.66,1.96 -1.14,2.99 -0.48,1.03 -1.03,2.02 -1.63,2.99 -0.6,0.97 -1.24,1.85 -1.92,2.64 -0.54,0.67 -1.13,1.3 -1.8,1.89 -0.67,0.59 -1.36,1.11 -2.1,1.58 -0.74,0.47 -1.5,0.84 -2.29,1.11 -0.38,0.14 -0.72,0.24 -1.04,0.3 -0.32,0.06 -0.58,0.09 -0.8,0.09 -0.55,0 -0.99,-0.13 -1.31,-0.38 -0.32,-0.25 -0.48,-0.61 -0.48,-1.07 0,-0.46 0.17,-0.83 0.5,-1.14 0.33,-0.31 0.76,-0.47 1.28,-0.47 0.55,0 1.06,0.16 1.51,0.48 0.46,0.32 0.88,0.75 1.26,1.31 z m 6.19,-5.17 -2.77,3.13 -2.07,-12.71 c -0.09,-0.47 -0.17,-0.79 -0.26,-0.96 -0.09,-0.17 -0.22,-0.26 -0.41,-0.26 -0.17,0 -0.35,0.12 -0.52,0.35 -0.17,0.23 -0.41,0.75 -0.7,1.57 l -0.47,1.27 h -0.49 l 0.65,-1.89 c 0.36,-1.05 0.82,-1.76 1.37,-2.12 0.55,-0.36 1.16,-0.54 1.81,-0.54 0.71,0 1.28,0.19 1.71,0.58 0.43,0.39 0.72,1.13 0.88,2.21 z"
         id="path30" />
      <path
         class="st2"
         d="m 198.15,267.71 c 0.71,-0.28 1.38,-0.59 2.02,-0.93 0.64,-0.34 1.18,-0.72 1.63,-1.14 0.67,-0.6 1.21,-1.31 1.62,-2.11 0.41,-0.8 0.61,-1.67 0.61,-2.6 0,-0.34 -0.03,-0.57 -0.1,-0.69 -0.07,-0.12 -0.17,-0.17 -0.31,-0.17 -0.38,0 -0.79,0.19 -1.23,0.58 -0.44,0.39 -0.88,0.91 -1.31,1.55 -0.43,0.65 -0.82,1.39 -1.18,2.21 -0.36,0.82 -0.64,1.69 -0.85,2.59 -0.21,0.9 -0.32,1.77 -0.32,2.61 0,0.97 0.19,1.63 0.56,1.98 0.37,0.35 0.85,0.53 1.44,0.53 0.47,0 1.04,-0.16 1.73,-0.47 0.69,-0.31 1.37,-0.86 2.04,-1.66 l 0.42,0.21 c -0.36,0.57 -0.84,1.12 -1.42,1.66 -0.59,0.54 -1.27,0.97 -2.05,1.31 -0.78,0.34 -1.62,0.5 -2.54,0.5 -0.78,0 -1.47,-0.14 -2.08,-0.41 -0.61,-0.28 -1.1,-0.69 -1.45,-1.23 -0.35,-0.54 -0.53,-1.21 -0.53,-2.01 0,-0.91 0.15,-1.85 0.45,-2.82 0.3,-0.97 0.73,-1.9 1.28,-2.81 0.55,-0.91 1.22,-1.73 1.99,-2.46 0.78,-0.73 1.64,-1.31 2.59,-1.73 0.95,-0.42 1.96,-0.63 3.03,-0.63 0.76,0 1.4,0.17 1.92,0.5 0.52,0.34 0.78,0.85 0.78,1.54 0,0.69 -0.19,1.3 -0.56,1.89 -0.37,0.59 -0.87,1.12 -1.49,1.61 -0.62,0.49 -1.32,0.92 -2.08,1.29 -0.77,0.38 -1.55,0.71 -2.36,0.98 -0.8,0.28 -1.56,0.49 -2.27,0.65 l 0.03,-0.34 z"
         id="path31" />
    </g>
  </g>
</svg>
